<?xml version="1.0" encoding="iso-8859-1"?>
<!-- Uploaded to: SVG Repo, www.svgrepo.com, Generator: SVG Repo Mixer Tools -->
<svg fill="#ffffff" version="1.1" id="Capa_1" xmlns="http://www.w3.org/2000/svg" xmlns:xlink="http://www.w3.org/1999/xlink" 
	 viewBox="0 0 446.743 446.743" xml:space="preserve">
<g>
	<g id="Layer_1_56_">
		<g>
			<path d="M243.947,126.016c29.518,7.773,59.74-9.85,67.514-39.367c7.771-29.512-9.85-59.74-39.363-67.512
				c-29.518-7.773-59.744,9.854-67.516,39.365C196.81,88.02,214.43,118.245,243.947,126.016z"/>
			<path d="M385.307,67.333c-0.947-1.076-2.311-1.693-3.744-1.691l-40.805,0.012c-1.432,0.002-2.793,0.623-3.736,1.701
				s-1.373,2.512-1.184,3.934l17.293,128.717l-68.057-28.943c0,0-7.301-3.066-10.445-7.357
				c-28.268-38.586-63.686-50.893-91.535-43.338l-64.547,19.523l-3.217,0.967c-8.752,2.65-15.018,10.893-14.764,20.477l1.895,71.291
				c0.217,8.48,6.551,15.801,15.229,16.984c9.639,1.314,18.518-5.436,19.832-15.074l7.057-51.797l22.277-3.729
				c0,0-14.969,84.1-15.311,86.477l-7.279,50.584l-70.129,32.854c-11.238,5.305-16.832,18.459-12.439,30.332
				c4.641,12.547,18.572,18.953,31.117,14.314l87.971-32.541c7.928-3.002,14.395-9.879,16.348-18.777l0.473-2.148l9.506-43.277
				l35.311,37.471l9.051,90.633c1.273,12.432,11.924,22.088,24.633,21.805c13.371-0.299,23.971-11.379,23.672-24.748l-2.266-101.721
				c-0.119-5.371-1.965-10.762-5.629-15.242l-1.309-1.602l-34.736-42.502c3.576-12.434,8.598-31.078,12.551-50.346l82.49,29.559
				c9.037,3.486,19.479-0.416,23.84-9.273c4.17-8.467,1.412-18.52-6.064-23.793l17.846-135.803
				C386.687,69.841,386.254,68.411,385.307,67.333z"/>
			<path d="M346.498,61.628l9.283-0.014c-1.861-2.516-5.838-9.689,2.471-16.918c0.389-0.322,3.449-3.039-0.092-6.832
				c-0.338-0.352-0.346-0.844-0.031-1.205c0.318-0.369,0.889-0.516,1.406-0.377c0.326,0.086,8.145,2.281,11.527,8.74
				c2.438,4.643,1.914,10.217-1.527,16.57l6.938-0.01c2.711-3.115,17.799-22.338-4.51-41.639c-0.918-0.752-8.141-7.127,0.178-16.092
				c0.773-0.836,0.801-1.996,0.049-2.85c-0.742-0.854-2.082-1.211-3.305-0.877c-0.775,0.215-19.182,5.428-27.104,20.67
				c-5.92,11.375-4.344,25.098,4.678,40.779C346.469,61.593,346.484,61.61,346.498,61.628z"/>
		</g>
	</g>
</g>
</svg>